<svg width="78" height="70" viewBox="0 0 78 70" fill="none" xmlns="http://www.w3.org/2000/svg">
<path d="M5.89692 59.9231L9.33684 65.8838C10.0516 67.1389 11.079 68.125 12.2853 68.8421C15.7403 64.4422 18.1453 61.0658 19.5003 58.7129C20.8755 56.3252 22.5656 52.5903 24.5706 47.5083C19.1667 46.7947 15.0717 46.4379 12.2856 46.4379C9.61147 46.4379 5.51627 46.7947 0 47.5083C0 48.8976 0.357398 50.2869 1.0722 51.5421L5.89692 59.9231Z" fill="#0066DA"/>
<path d="M65.7154 68.8421C66.9219 68.125 67.9493 67.1389 68.6638 65.8841L70.0934 63.4191L76.9288 51.5421C77.6303 50.3142 77.9998 48.9236 78.0007 47.5083C72.4523 46.7947 68.3647 46.4379 65.7379 46.4379C62.9147 46.4379 58.827 46.7947 53.4749 47.5083C55.4561 52.6182 57.124 56.3531 58.4784 58.7129C59.8442 61.0937 62.2566 64.4702 65.7154 68.8421Z" fill="#EA4335"/>
<path d="M39.0004 22.4095C42.9979 17.5659 45.7528 13.8311 47.265 11.2049C48.483 9.09022 49.8232 5.71381 51.2857 1.07568C50.0794 0.358559 48.6946 0 47.265 0H30.7357C29.3062 0 27.9217 0.403493 26.7151 1.07568C28.5757 6.39507 30.1544 10.1808 31.4512 12.4328C32.8844 14.9216 35.4008 18.2472 39.0004 22.4095Z" fill="#00832D"/>
<path d="M53.43 47.5083H24.5706L12.2856 68.8421C13.4916 69.5592 14.8764 69.9178 16.306 69.9178H61.6947C63.1243 69.9178 64.5094 69.5143 65.7153 68.8418L53.43 47.5083Z" fill="#2684FC"/>
<path d="M39.0003 22.4094L26.7153 1.07593C25.5087 1.79305 24.4813 2.77885 23.7665 4.03396L1.0722 43.4745C0.370578 44.7024 0.000969365 46.0929 0 47.5082H24.5706L39.0003 22.4094Z" fill="#00AC47"/>
<path d="M65.5814 23.7542L54.2339 4.03372C53.5195 2.77861 52.4917 1.7928 51.2855 1.07568L39.0005 22.4095L53.4299 47.5083H77.956C77.956 46.1187 77.5986 44.7297 76.8838 43.4746L65.5814 23.7542Z" fill="#FFBA00"/>
</svg>
